<svg width="131" height="114" viewBox="0 0 131 114" fill="none" xmlns="http://www.w3.org/2000/svg">
<path d="M129.92 18.7401V108.16C129.92 108.16 91.0696 101.4 66.5796 111.54L65.7396 111.96L64.8996 111.54C40.4096 101.41 1.55957 108.16 1.55957 108.16V18.7401H8.31958V9.36012L16.7596 9.04012V1.76012C16.7596 1.76012 30.2696 -4.14988 65.7396 15.2701C101.21 -4.14988 114.72 1.76012 114.72 1.76012V9.04012L123.16 9.36012V18.7401H129.92Z" fill="#1F2D5A"/>
<path d="M65.7393 15.3602C101.209 -4.05979 114.719 1.85021 114.719 1.85021V87.9902C114.719 87.9902 83.0493 90.9502 66.1593 103.61" stroke="white" stroke-width="1.689" stroke-miterlimit="10"/>
<path d="M114.719 9.13013L123.159 9.45012V98.9601C123.159 98.9601 99.5093 94.7401 65.7393 107.4" stroke="white" stroke-width="1.689" stroke-miterlimit="10"/>
<path d="M65.7393 101.55V112.05L66.5793 111.63C91.0693 101.5 129.919 108.25 129.919 108.25V18.8301H123.159" stroke="white" stroke-width="1.689" stroke-miterlimit="10"/>
<path d="M65.7397 15.3602C30.2697 -4.05979 16.7598 1.85021 16.7598 1.85021V87.9902C16.7598 87.9902 48.4298 90.9502 65.3198 103.61" stroke="white" stroke-width="1.689" stroke-miterlimit="10"/>
<path d="M16.7593 9.13013L8.31934 9.45012V98.9601C8.31934 98.9601 31.9693 94.7401 65.7393 107.4" stroke="white" stroke-width="1.689" stroke-miterlimit="10"/>
<path d="M65.7396 101.55V112.05L64.8996 111.63C40.4096 101.5 1.55957 108.25 1.55957 108.25V18.8301H8.31958" stroke="white" stroke-width="1.689" stroke-miterlimit="10"/>
<path d="M65.7393 15.3601V103.19" stroke="white" stroke-width="1.689" stroke-miterlimit="10"/>
</svg>
