<svg width="1465" height="252" viewBox="0 0 1465 252" fill="none" xmlns="http://www.w3.org/2000/svg">
<path d="M398.74 219.48C450.511 219.48 492.48 177.511 492.48 125.74C492.48 73.9688 450.511 32 398.74 32C346.969 32 305 73.9688 305 125.74C305 177.511 346.969 219.48 398.74 219.48Z" fill="white"/>
<path d="M398.74 219.48C450.511 219.48 492.48 177.511 492.48 125.74C492.48 73.9688 450.511 32 398.74 32C346.969 32 305 73.9688 305 125.74C305 177.511 346.969 219.48 398.74 219.48Z" fill="white"/>
<path d="M462.92 87.7401V177.16C462.92 177.16 424.07 170.4 399.58 180.54L398.74 180.96L397.9 180.54C373.41 170.41 334.56 177.16 334.56 177.16V87.7401H341.32V78.3601L349.76 78.0401V70.7601C349.76 70.7601 363.27 64.8501 398.74 84.2701C434.21 64.8501 447.72 70.7601 447.72 70.7601V78.0401L456.16 78.3601V87.7401H462.92Z" fill="#1F2D5A"/>
<path d="M398.739 84.3602C434.209 64.9402 447.719 70.8502 447.719 70.8502V156.99C447.719 156.99 416.049 159.95 399.159 172.61" stroke="white" stroke-width="1.689" stroke-miterlimit="10"/>
<path d="M447.719 78.1301L456.159 78.4501V167.96C456.159 167.96 432.509 163.74 398.739 176.4" stroke="white" stroke-width="1.689" stroke-miterlimit="10"/>
<path d="M398.739 170.55V181.05L399.579 180.63C424.069 170.5 462.919 177.25 462.919 177.25V87.8301H456.159" stroke="white" stroke-width="1.689" stroke-miterlimit="10"/>
<path d="M398.74 84.3602C363.27 64.9402 349.76 70.8502 349.76 70.8502V156.99C349.76 156.99 381.43 159.95 398.32 172.61" stroke="white" stroke-width="1.689" stroke-miterlimit="10"/>
<path d="M349.759 78.1301L341.319 78.4501V167.96C341.319 167.96 364.969 163.74 398.739 176.4" stroke="white" stroke-width="1.689" stroke-miterlimit="10"/>
<path d="M398.74 170.55V181.05L397.9 180.63C373.41 170.5 334.56 177.25 334.56 177.25V87.8301H341.32" stroke="white" stroke-width="1.689" stroke-miterlimit="10"/>
<path d="M398.739 84.3601V172.19" stroke="white" stroke-width="1.689" stroke-miterlimit="10"/>
<path d="M145.643 141.284C145.643 148.007 144.776 153.936 143.041 159.069C141.378 164.202 138.992 168.648 135.883 172.408C132.847 176.167 129.232 179.312 125.039 181.843C120.845 184.373 116.254 186.397 111.266 187.916C106.35 189.434 101.108 190.518 95.5412 191.169C90.0466 191.82 84.4435 192.145 78.732 192.145C71.2131 192.145 64.2725 191.567 57.9103 190.41C51.5482 189.325 45.5475 187.59 39.9083 185.204C34.3413 182.746 28.9552 179.601 23.7497 175.77C18.6166 171.938 13.4835 167.275 8.35037 161.78L30.4734 139.332C32.4978 144.32 35.2812 148.947 38.8238 153.213C42.3664 157.406 46.2343 161.021 50.4275 164.057C54.6931 167.094 59.1033 169.48 63.658 171.215C68.2127 172.95 72.5145 173.818 76.5631 173.818C81.3348 173.818 85.8172 173.492 90.0105 172.841C94.2037 172.119 97.8547 170.962 100.964 169.371C104.072 167.781 106.494 165.684 108.229 163.081C110.037 160.406 110.941 157.081 110.941 153.104C110.941 150.068 110.254 147.465 108.88 145.296C107.506 143.127 105.699 141.284 103.458 139.765C101.289 138.175 98.7946 136.837 95.975 135.753C93.1554 134.668 90.2635 133.765 87.2993 133.042C84.4074 132.246 81.5516 131.56 78.732 130.981C75.9124 130.331 73.4182 129.68 71.2492 129.029C66.9837 127.8 62.5374 126.499 57.9103 125.125C53.2833 123.679 48.7286 122.052 44.2461 120.245C39.7637 118.438 35.4981 116.377 31.4494 114.064C27.4731 111.678 23.9666 108.894 20.9301 105.713C17.8936 102.46 15.4717 98.7365 13.6642 94.5432C11.8568 90.2777 10.9531 85.3976 10.9531 79.903C10.9531 73.3239 11.7484 67.504 13.3389 62.4431C15.0017 57.31 17.3153 52.8637 20.2795 49.1042C23.2437 45.3448 26.7501 42.1998 30.7988 39.6694C34.8474 37.0667 39.2937 35.0062 44.1377 33.488C48.9816 31.8974 54.1147 30.7768 59.537 30.1261C65.0317 29.4031 70.6347 29.0417 76.3462 29.0417C84.1544 29.0417 91.2395 29.7646 97.6017 31.2106C104.036 32.6565 109.965 34.717 115.387 37.392C120.809 40.067 125.762 43.2843 130.244 47.0437C134.799 50.7309 139.064 54.8519 143.041 59.4066L120.918 81.855C119.183 76.6496 116.761 71.9503 113.652 67.757C110.615 63.5637 107.217 59.985 103.458 57.0208C99.6983 53.9843 95.7581 51.6708 91.6372 50.0802C87.5162 48.4174 83.5398 47.586 79.7081 47.586C74.7195 47.586 70.1286 47.9475 65.9354 48.6704C61.7421 49.3211 58.1272 50.4417 55.0907 52.0323C52.1265 53.5505 49.813 55.6472 48.1502 58.3222C46.4873 60.9249 45.6559 64.1783 45.6559 68.0823C45.6559 71.1911 46.2704 73.83 47.4995 75.9989C48.7286 78.1678 50.3552 80.0114 52.3796 81.5297C54.4762 83.0479 56.8259 84.3131 59.4286 85.3253C62.0313 86.2652 64.7063 87.0966 67.4536 87.8196C70.2732 88.5425 73.0205 89.1932 75.6955 89.7716C78.4429 90.2777 80.9371 90.8561 83.1783 91.5067C87.5162 92.7358 92.0709 94.0372 96.8426 95.4108C101.614 96.7845 106.314 98.4112 110.941 100.291C115.568 102.098 119.978 104.195 124.171 106.581C128.364 108.967 132.051 111.822 135.233 115.148C138.414 118.401 140.944 122.197 142.824 126.535C144.704 130.8 145.643 135.717 145.643 141.284ZM296.926 117.209C296.926 125.667 295.878 134.488 293.781 143.669C291.757 152.851 288.901 161.852 285.214 170.673C281.527 179.493 277.117 187.771 271.983 195.507C266.85 203.315 261.211 210.039 255.066 215.678L241.293 208.195C243.245 204.58 245.089 200.531 246.824 196.049C248.559 191.567 250.113 186.831 251.487 181.843C252.933 176.782 254.198 171.576 255.283 166.226C256.439 160.876 257.379 155.599 258.102 150.393C258.898 145.115 259.476 140.018 259.837 135.102C260.271 130.114 260.488 125.487 260.488 121.221C260.488 118.401 260.38 115.401 260.163 112.22C259.946 108.967 259.476 105.749 258.753 102.568C258.102 99.3149 257.199 96.2061 256.042 93.2419C254.885 90.2777 253.331 87.675 251.379 85.4337C249.499 83.1925 247.185 81.3851 244.438 80.0114C241.763 78.6378 238.582 77.951 234.895 77.951C231.28 77.951 228.063 78.7824 225.243 80.4452C222.423 82.0358 219.929 84.1685 217.76 86.8436C215.591 89.4463 213.712 92.4466 212.121 95.8446C210.603 99.2426 209.338 102.749 208.325 106.364C207.386 109.906 206.699 113.413 206.265 116.883C205.831 120.353 205.614 123.462 205.614 126.21V189H168.851V17.6548H205.506V82.1804C210.205 75.3121 215.953 70.0344 222.749 66.3472C229.617 62.5877 237.208 60.708 245.523 60.708C254.198 60.708 261.753 62.1178 268.188 64.9374C274.622 67.757 279.972 71.6972 284.238 76.758C288.503 81.7466 291.684 87.7111 293.781 94.6517C295.878 101.52 296.926 109.039 296.926 117.209Z" fill="white"/>
<path d="M633.745 246.802H597.09V174.034C592.752 179.963 587.511 184.373 581.365 187.265C575.293 190.084 568.605 191.494 561.303 191.494C551.76 191.494 543.229 189.795 535.71 186.397C528.191 182.999 521.828 178.372 516.623 172.516C511.418 166.588 507.441 159.647 504.694 151.694C501.947 143.742 500.573 135.211 500.573 126.101C500.573 116.992 501.947 108.461 504.694 100.508C507.441 92.5551 511.418 85.6506 516.623 79.7945C521.828 73.8661 528.191 69.2029 535.71 65.805C543.229 62.407 551.76 60.708 561.303 60.708C566.147 60.708 570.738 61.431 575.076 62.8769C579.486 64.3229 583.498 66.3833 587.113 69.0584C590.8 71.6611 594.018 74.8422 596.765 78.6016C599.584 82.2888 601.79 86.4098 603.38 90.9645L619.647 63.7445H633.745V246.802ZM596.873 126.101C596.873 122.848 596.693 119.414 596.331 115.799C596.042 112.184 595.5 108.605 594.704 105.063C593.909 101.52 592.789 98.1581 591.343 94.977C589.969 91.7236 588.161 88.8679 585.92 86.4098C583.751 83.8794 581.112 81.8912 578.004 80.4452C574.895 78.9993 571.28 78.2763 567.159 78.2763C563.038 78.2763 559.459 79.0354 556.423 80.5537C553.386 81.9996 550.784 83.9878 548.615 86.5182C546.446 88.9763 544.638 91.8321 543.192 95.0855C541.819 98.3389 540.734 101.737 539.939 105.279C539.144 108.822 538.565 112.401 538.204 116.016C537.915 119.558 537.77 122.92 537.77 126.101C537.77 129.282 537.915 132.68 538.204 136.295C538.565 139.91 539.144 143.489 539.939 147.031C540.734 150.574 541.819 153.972 543.192 157.225C544.638 160.479 546.446 163.371 548.615 165.901C550.784 168.359 553.386 170.347 556.423 171.865C559.459 173.311 563.038 174.034 567.159 174.034C570.919 174.034 574.244 173.275 577.136 171.757C580.1 170.166 582.667 168.07 584.836 165.467C587.077 162.864 588.957 159.9 590.475 156.575C591.993 153.249 593.222 149.815 594.162 146.272C595.102 142.73 595.789 139.223 596.223 135.753C596.656 132.21 596.873 128.993 596.873 126.101ZM790.558 189H753.904V174.034C749.566 179.963 744.324 184.373 738.179 187.265C732.106 190.084 725.418 191.494 718.116 191.494C708.573 191.494 700.042 189.795 692.523 186.397C685.004 182.999 678.642 178.372 673.436 172.516C668.231 166.588 664.255 159.647 661.507 151.694C658.76 143.742 657.386 135.211 657.386 126.101C657.386 116.992 658.76 108.461 661.507 100.508C664.255 92.5551 668.231 85.6506 673.436 79.7945C678.642 73.8661 685.004 69.2029 692.523 65.805C700.042 62.407 708.573 60.708 718.116 60.708C722.96 60.708 727.551 61.431 731.889 62.8769C736.299 64.3229 740.312 66.3833 743.927 69.0584C747.614 71.6611 750.831 74.8422 753.578 78.6016C756.398 82.2888 758.603 86.4098 760.194 90.9645L776.46 63.7445H790.558V189ZM753.687 126.101C753.687 122.848 753.506 119.414 753.144 115.799C752.855 112.184 752.313 108.605 751.518 105.063C750.723 101.52 749.602 98.1581 748.156 94.977C746.782 91.7236 744.975 88.8679 742.734 86.4098C740.565 83.8794 737.926 81.8912 734.817 80.4452C731.708 78.9993 728.093 78.2763 723.972 78.2763C719.851 78.2763 716.273 79.0354 713.236 80.5537C710.2 81.9996 707.597 83.9878 705.428 86.5182C703.259 88.9763 701.452 91.8321 700.006 95.0855C698.632 98.3389 697.548 101.737 696.752 105.279C695.957 108.822 695.379 112.401 695.017 116.016C694.728 119.558 694.583 122.92 694.583 126.101C694.583 129.282 694.728 132.68 695.017 136.295C695.379 139.91 695.957 143.489 696.752 147.031C697.548 150.574 698.632 153.972 700.006 157.225C701.452 160.479 703.259 163.371 705.428 165.901C707.597 168.359 710.2 170.347 713.236 171.865C716.273 173.311 719.851 174.034 723.972 174.034C727.732 174.034 731.058 173.275 733.949 171.757C736.914 170.166 739.48 168.07 741.649 165.467C743.89 162.864 745.77 159.9 747.288 156.575C748.807 153.249 750.036 149.815 750.976 146.272C751.915 142.73 752.602 139.223 753.036 135.753C753.47 132.21 753.687 128.993 753.687 126.101ZM949.324 117.209C949.324 125.667 948.276 134.488 946.179 143.669C944.155 152.851 941.299 161.852 937.612 170.673C933.925 179.493 929.514 187.771 924.381 195.507C919.248 203.315 913.609 210.039 907.464 215.678L893.691 208.195C895.643 204.58 897.487 200.531 899.222 196.049C900.957 191.567 902.511 186.831 903.885 181.843C905.331 176.782 906.596 171.576 907.681 166.226C908.837 160.876 909.777 155.599 910.5 150.393C911.295 145.115 911.874 140.018 912.235 135.102C912.669 130.114 912.886 125.487 912.886 121.221C912.886 118.401 912.777 115.401 912.561 112.22C912.344 108.967 911.874 105.749 911.151 102.568C910.5 99.3149 909.596 96.2061 908.44 93.2419C907.283 90.2777 905.728 87.675 903.776 85.4337C901.897 83.1925 899.583 81.3851 896.836 80.0114C894.161 78.6378 890.98 77.951 887.293 77.951C883.678 77.951 880.46 78.7824 877.641 80.4452C874.821 82.0358 872.327 84.1685 870.158 86.8436C867.989 89.4463 866.109 92.4466 864.519 95.8446C863.001 99.2426 861.735 102.749 860.723 106.364C859.783 109.906 859.097 113.413 858.663 116.883C858.229 120.353 858.012 123.462 858.012 126.21V189H821.249V63.7445H835.347L852.156 92.9165C854.18 88.0726 856.711 83.6625 859.747 79.6861C862.784 75.7097 866.218 72.3117 870.05 69.4921C873.881 66.6725 878.111 64.5036 882.738 62.9854C887.437 61.4671 892.498 60.708 897.92 60.708C906.596 60.708 914.151 62.1178 920.586 64.9374C927.02 67.757 932.37 71.6972 936.636 76.758C940.901 81.7466 944.082 87.7111 946.179 94.6517C948.276 101.52 949.324 109.039 949.324 117.209ZM1150.93 189H1038.79V32.8373H1150.93V52.7914H1081.85V101.05H1135.2V120.896H1081.85V169.046H1150.93V189ZM1296.68 189H1282.58L1266.31 161.78C1264.72 166.335 1262.52 170.456 1259.7 174.143C1256.95 177.83 1253.73 181.011 1250.05 183.686C1246.43 186.289 1242.42 188.313 1238.01 189.759C1233.67 191.205 1229.08 191.928 1224.24 191.928C1214.69 191.928 1206.16 190.229 1198.64 186.831C1191.12 183.433 1184.76 178.806 1179.56 172.95C1174.35 167.022 1170.37 160.081 1167.63 152.128C1164.88 144.176 1163.51 135.644 1163.51 126.535C1163.51 117.425 1164.88 108.894 1167.63 100.942C1170.37 92.9888 1174.35 86.0844 1179.56 80.2283C1184.76 74.3722 1191.12 69.7452 1198.64 66.3472C1206.16 62.9492 1214.69 61.2502 1224.24 61.2502C1231.54 61.2502 1238.22 62.66 1244.3 65.4796C1250.44 68.2992 1255.68 72.7094 1260.02 78.7101V17.6548H1296.68V189ZM1259.81 126.535C1259.81 123.643 1259.59 120.462 1259.16 116.992C1258.72 113.521 1258.03 110.015 1257.09 106.472C1256.15 102.93 1254.93 99.4956 1253.41 96.1699C1251.89 92.8442 1250.01 89.88 1247.77 87.2773C1245.6 84.6746 1243.03 82.6141 1240.07 81.0959C1237.18 79.5053 1233.85 78.7101 1230.09 78.7101C1225.97 78.7101 1222.39 79.4692 1219.36 80.9874C1216.32 82.4334 1213.72 84.4216 1211.55 86.952C1209.38 89.4101 1207.57 92.2659 1206.12 95.5193C1204.75 98.7726 1203.67 102.171 1202.87 105.713C1202.08 109.256 1201.5 112.835 1201.14 116.449C1200.85 119.992 1200.7 123.354 1200.7 126.535C1200.7 129.716 1200.85 133.114 1201.14 136.729C1201.5 140.271 1202.08 143.814 1202.87 147.357C1203.67 150.899 1204.75 154.333 1206.12 157.659C1207.57 160.912 1209.38 163.804 1211.55 166.335C1213.72 168.793 1216.32 170.781 1219.36 172.299C1222.39 173.745 1225.97 174.468 1230.09 174.468C1234.21 174.468 1237.83 173.745 1240.94 172.299C1244.04 170.853 1246.68 168.901 1248.85 166.443C1251.09 163.913 1252.9 161.057 1254.27 157.876C1255.72 154.623 1256.84 151.225 1257.64 147.682C1258.43 144.067 1258.97 140.452 1259.26 136.837C1259.63 133.222 1259.81 129.788 1259.81 126.535ZM1320.86 135.428C1320.86 129.716 1321.33 123.788 1322.27 117.642C1323.28 111.497 1324.69 105.352 1326.5 99.2064C1328.38 93.0611 1330.62 86.9881 1333.22 80.9874C1335.83 74.9868 1338.75 69.2391 1342.01 63.7445H1368.79C1366.99 69.1668 1365.36 74.8422 1363.91 80.7706C1362.54 86.6267 1361.35 92.5189 1360.34 98.4473C1359.4 104.303 1358.64 110.051 1358.06 115.69C1357.55 121.329 1357.3 126.571 1357.3 131.415C1357.3 134.235 1357.41 137.271 1357.62 140.524C1357.91 143.706 1358.38 146.923 1359.03 150.176C1359.68 153.357 1360.59 156.43 1361.75 159.394C1362.97 162.358 1364.53 164.997 1366.41 167.311C1368.29 169.552 1370.57 171.359 1373.24 172.733C1375.99 174.034 1379.21 174.685 1382.89 174.685C1386.51 174.685 1389.72 173.89 1392.54 172.299C1395.44 170.636 1397.97 168.504 1400.14 165.901C1402.3 163.226 1404.15 160.189 1405.67 156.791C1407.18 153.393 1408.41 149.923 1409.35 146.381C1410.37 142.766 1411.09 139.259 1411.52 135.861C1412.03 132.391 1412.28 129.282 1412.28 126.535V63.7445H1448.94V189H1434.84L1418.03 159.828C1415.93 164.672 1413.37 169.082 1410.33 173.058C1407.37 176.962 1403.97 180.324 1400.14 183.144C1396.3 185.964 1392.04 188.132 1387.34 189.651C1382.71 191.169 1377.69 191.928 1372.26 191.928C1363.59 191.928 1356.03 190.518 1349.6 187.699C1343.16 184.879 1337.81 180.975 1333.55 175.986C1329.28 170.998 1326.1 165.07 1324.01 158.201C1321.91 151.261 1320.86 143.669 1320.86 135.428Z" fill="white"/>
</svg>
